<mxfile host="app.diagrams.net" modified="2022-04-15T02:47:42.998Z" agent="5.0 (Macintosh; Intel Mac OS X 10_15_7) AppleWebKit/537.36 (KHTML, like Gecko) Chrome/100.0.4896.88 Safari/537.36" etag="Ns7XUeFKCXE5QsgqSuLT" version="17.4.4" type="github">
  <diagram id="GQeWL2nTSIG87tDZNMUT" name="Page-1">
    <mxGraphModel dx="1278" dy="747" grid="1" gridSize="10" guides="1" tooltips="1" connect="1" arrows="1" fold="1" page="1" pageScale="1" pageWidth="827" pageHeight="1169" math="0" shadow="0">
      <root>
        <mxCell id="0" />
        <mxCell id="1" parent="0" />
        <mxCell id="KhDFo-M1c330gRiOqBZQ-3" value="附加组件库" style="rounded=0;whiteSpace=wrap;html=1;verticalAlign=top;align=left;fontSize=18;fontStyle=1;fillColor=#d5e8d4;strokeColor=#82b366;" parent="1" vertex="1">
          <mxGeometry x="840" y="130" width="290" height="310" as="geometry" />
        </mxCell>
        <mxCell id="KhDFo-M1c330gRiOqBZQ-4" value="核心模块" style="rounded=0;whiteSpace=wrap;html=1;verticalAlign=top;align=left;fontSize=18;fontStyle=1;fillColor=#ffe6cc;strokeColor=#d79b00;" parent="1" vertex="1">
          <mxGeometry x="310" y="130" width="350" height="310" as="geometry" />
        </mxCell>
        <mxCell id="KhDFo-M1c330gRiOqBZQ-5" value="统一链路层" style="rounded=0;whiteSpace=wrap;html=1;verticalAlign=top;fontSize=16;" parent="1" vertex="1">
          <mxGeometry x="320" y="247" width="330" height="83" as="geometry" />
        </mxCell>
        <mxCell id="KhDFo-M1c330gRiOqBZQ-6" value="存储访问层" style="rounded=0;whiteSpace=wrap;html=1;fontSize=16;verticalAlign=top;" parent="1" vertex="1">
          <mxGeometry x="320" y="340" width="330" height="90" as="geometry" />
        </mxCell>
        <mxCell id="KhDFo-M1c330gRiOqBZQ-8" value="&lt;font style=&quot;font-size: 18px&quot;&gt;&lt;b&gt;核心组件库&lt;/b&gt;&lt;/font&gt;" style="rounded=0;whiteSpace=wrap;html=1;fontSize=16;verticalAlign=top;align=left;fillColor=#fff2cc;strokeColor=#d6b656;" parent="1" vertex="1">
          <mxGeometry x="680" y="130" width="140" height="310" as="geometry" />
        </mxCell>
        <mxCell id="KhDFo-M1c330gRiOqBZQ-7" value="拦截链路" style="rounded=0;whiteSpace=wrap;html=1;fontSize=16;" parent="1" vertex="1">
          <mxGeometry x="350" y="277.5" width="120" height="40" as="geometry" />
        </mxCell>
        <mxCell id="KhDFo-M1c330gRiOqBZQ-10" value="监听链路" style="rounded=0;whiteSpace=wrap;html=1;fontSize=16;" parent="1" vertex="1">
          <mxGeometry x="490" y="277.5" width="130" height="40" as="geometry" />
        </mxCell>
        <mxCell id="KhDFo-M1c330gRiOqBZQ-11" value="接口层" style="rounded=0;whiteSpace=wrap;html=1;fontSize=16;" parent="1" vertex="1">
          <mxGeometry x="320" y="173" width="330" height="60" as="geometry" />
        </mxCell>
        <mxCell id="KhDFo-M1c330gRiOqBZQ-12" value="redis" style="rounded=0;whiteSpace=wrap;html=1;fontSize=16;" parent="1" vertex="1">
          <mxGeometry x="880" y="170" width="90" height="40" as="geometry" />
        </mxCell>
        <mxCell id="KhDFo-M1c330gRiOqBZQ-13" value="hbase" style="rounded=0;whiteSpace=wrap;html=1;fontSize=16;" parent="1" vertex="1">
          <mxGeometry x="880" y="237.5" width="90" height="40" as="geometry" />
        </mxCell>
        <mxCell id="KhDFo-M1c330gRiOqBZQ-14" value="kiwi" style="rounded=0;whiteSpace=wrap;html=1;fontSize=16;" parent="1" vertex="1">
          <mxGeometry x="880" y="300" width="90" height="40" as="geometry" />
        </mxCell>
        <mxCell id="KhDFo-M1c330gRiOqBZQ-15" value="pika" style="rounded=0;whiteSpace=wrap;html=1;fontSize=16;" parent="1" vertex="1">
          <mxGeometry x="880" y="365" width="90" height="40" as="geometry" />
        </mxCell>
        <mxCell id="KhDFo-M1c330gRiOqBZQ-16" value="权限拦截器" style="rounded=0;whiteSpace=wrap;html=1;fontSize=16;" parent="1" vertex="1">
          <mxGeometry x="700" y="268.5" width="100" height="40" as="geometry" />
        </mxCell>
        <mxCell id="KhDFo-M1c330gRiOqBZQ-17" value="异常监听器" style="rounded=0;whiteSpace=wrap;html=1;fontSize=16;" parent="1" vertex="1">
          <mxGeometry x="992" y="170" width="96" height="45" as="geometry" />
        </mxCell>
        <mxCell id="KhDFo-M1c330gRiOqBZQ-18" value="流控拦截器" style="rounded=0;whiteSpace=wrap;html=1;fontSize=16;" parent="1" vertex="1">
          <mxGeometry x="992" y="330" width="96" height="45" as="geometry" />
        </mxCell>
        <mxCell id="KhDFo-M1c330gRiOqBZQ-19" value="装配监听器" style="rounded=0;whiteSpace=wrap;html=1;fontSize=16;" parent="1" vertex="1">
          <mxGeometry x="700" y="365" width="100" height="40" as="geometry" />
        </mxCell>
        <mxCell id="KhDFo-M1c330gRiOqBZQ-20" value="配置拦截器" style="rounded=0;whiteSpace=wrap;html=1;fontSize=16;" parent="1" vertex="1">
          <mxGeometry x="700" y="173" width="100" height="40" as="geometry" />
        </mxCell>
        <mxCell id="KhDFo-M1c330gRiOqBZQ-21" value="打点监听器" style="rounded=0;whiteSpace=wrap;html=1;fontSize=16;" parent="1" vertex="1">
          <mxGeometry x="992" y="247" width="96" height="45" as="geometry" />
        </mxCell>
        <mxCell id="caog0tyJu0MzEItGIJM4-1" value="hash" style="rounded=0;whiteSpace=wrap;html=1;fontSize=16;" vertex="1" parent="1">
          <mxGeometry x="336" y="376" width="70" height="40" as="geometry" />
        </mxCell>
        <mxCell id="caog0tyJu0MzEItGIJM4-2" value="scan" style="rounded=0;whiteSpace=wrap;html=1;fontSize=16;" vertex="1" parent="1">
          <mxGeometry x="426" y="376" width="70" height="40" as="geometry" />
        </mxCell>
        <mxCell id="caog0tyJu0MzEItGIJM4-3" value="kv" style="rounded=0;whiteSpace=wrap;html=1;fontSize=16;" vertex="1" parent="1">
          <mxGeometry x="516" y="376" width="70" height="40" as="geometry" />
        </mxCell>
        <mxCell id="caog0tyJu0MzEItGIJM4-4" value="..." style="rounded=0;whiteSpace=wrap;html=1;fontSize=16;strokeColor=#FFFFFF;" vertex="1" parent="1">
          <mxGeometry x="590" y="376" width="50" height="40" as="geometry" />
        </mxCell>
      </root>
    </mxGraphModel>
  </diagram>
</mxfile>
